<svg width="100" height="100" viewBox="0 0 100 100" fill="none" xmlns="http://www.w3.org/2000/svg">
<circle cx="50" cy="50" r="50" fill="#F4C276"/>
<path d="M72.2857 53.7143H53.7143V72.2857C53.7143 73.2708 53.323 74.2155 52.6264 74.9121C51.9298 75.6087 50.9851 76 50 76C49.0149 76 48.0702 75.6087 47.3736 74.9121C46.677 74.2155 46.2857 73.2708 46.2857 72.2857V53.7143H27.7143C26.7292 53.7143 25.7845 53.323 25.0879 52.6264C24.3913 51.9298 24 50.9851 24 50C24 49.0149 24.3913 48.0702 25.0879 47.3736C25.7845 46.677 26.7292 46.2857 27.7143 46.2857H46.2857V27.7143C46.2857 26.7292 46.677 25.7845 47.3736 25.0879C48.0702 24.3913 49.0149 24 50 24C50.9851 24 51.9298 24.3913 52.6264 25.0879C53.323 25.7845 53.7143 26.7292 53.7143 27.7143V46.2857H72.2857C73.2708 46.2857 74.2155 46.677 74.9121 47.3736C75.6087 48.0702 76 49.0149 76 50C76 50.9851 75.6087 51.9298 74.9121 52.6264C74.2155 53.323 73.2708 53.7143 72.2857 53.7143Z" fill="black"/>
</svg>
