<svg width="67" height="67" viewBox="0 0 67 67" fill="none" xmlns="http://www.w3.org/2000/svg">
<path fill-rule="evenodd" clip-rule="evenodd" d="M33.5 66.125C37.7844 66.125 42.0268 65.2811 45.985 63.6416C49.9433 62.002 53.5398 59.5989 56.5694 56.5694C59.5989 53.5398 62.002 49.9433 63.6416 45.985C65.2811 42.0268 66.125 37.7844 66.125 33.5C66.125 29.2156 65.2811 24.9732 63.6416 21.015C62.002 17.0567 59.5989 13.4602 56.5694 10.4306C53.5398 7.40113 49.9433 4.99799 45.985 3.35843C42.0268 1.71887 37.7844 0.875 33.5 0.875C24.8473 0.875 16.549 4.31227 10.4306 10.4306C4.31227 16.549 0.875 24.8473 0.875 33.5C0.875 42.1527 4.31227 50.451 10.4306 56.5694C16.549 62.6877 24.8473 66.125 33.5 66.125ZM32.659 46.695L50.784 24.945L45.216 20.305L29.6285 39.0064L21.5629 30.9371L16.4371 36.0629L27.3121 46.9379L30.1179 49.7436L32.659 46.695Z" fill="#4ECB71"/>
</svg>
