<svg width="58" height="41" viewBox="0 0 58 41" fill="none" xmlns="http://www.w3.org/2000/svg">
<rect width="58" height="41" fill="white"/>
<path d="M30.6667 34C29.9333 34 29.3058 33.7391 28.784 33.2173C28.2622 32.6956 28.0009 32.0676 28 31.3333V18C28 17.2667 28.2613 16.6391 28.784 16.1173C29.3067 15.5956 29.9342 15.3342 30.6667 15.3333H32V12.6667C32 10.8222 32.6502 9.25022 33.9507 7.95067C35.2511 6.65111 36.8231 6.00089 38.6667 6C40.5111 6 42.0836 6.65022 43.384 7.95067C44.6844 9.25111 45.3342 10.8231 45.3333 12.6667V15.3333H46.6667C47.4 15.3333 48.028 15.5947 48.5507 16.1173C49.0733 16.64 49.3342 17.2676 49.3333 18V31.3333C49.3333 32.0667 49.0724 32.6947 48.5507 33.2173C48.0289 33.74 47.4009 34.0009 46.6667 34H30.6667ZM38.6667 27.3333C39.4 27.3333 40.028 27.0724 40.5507 26.5507C41.0733 26.0289 41.3342 25.4009 41.3333 24.6667C41.3333 23.9333 41.0724 23.3058 40.5507 22.784C40.0289 22.2622 39.4009 22.0009 38.6667 22C37.9333 22 37.3058 22.2613 36.784 22.784C36.2622 23.3067 36.0009 23.9342 36 24.6667C36 25.4 36.2613 26.028 36.784 26.5507C37.3067 27.0733 37.9342 27.3342 38.6667 27.3333ZM34.6667 15.3333H42.6667V12.6667C42.6667 11.5556 42.2778 10.6111 41.5 9.83333C40.7222 9.05556 39.7778 8.66667 38.6667 8.66667C37.5556 8.66667 36.6111 9.05556 35.8333 9.83333C35.0556 10.6111 34.6667 11.5556 34.6667 12.6667V15.3333Z" fill="#9A9A9A"/>
</svg>
