<svg width="519" height="298" viewBox="0 0 519 298" fill="none" xmlns="http://www.w3.org/2000/svg">
<mask id="path-1-outside-1_23_3" maskUnits="userSpaceOnUse" x="236" y="154" width="280" height="117" fill="black">
<rect fill="white" x="236" y="154" width="280" height="117"/>
<path d="M241.506 264V160.727H254.011V252.906H302.017V264H241.506ZM404.496 212.364C404.496 223.256 402.529 232.669 398.596 240.602C394.662 248.536 389.267 254.654 382.409 258.957C375.551 263.26 367.718 265.412 358.91 265.412C350.103 265.412 342.27 263.26 335.412 258.957C328.554 254.654 323.158 248.536 319.225 240.602C315.292 232.669 313.325 223.256 313.325 212.364C313.325 201.472 315.292 192.059 319.225 184.125C323.158 176.191 328.554 170.073 335.412 165.77C342.27 161.467 350.103 159.315 358.91 159.315C367.718 159.315 375.551 161.467 382.409 165.77C389.267 170.073 394.662 176.191 398.596 184.125C402.529 192.059 404.496 201.472 404.496 212.364ZM392.393 212.364C392.393 203.421 390.897 195.874 387.905 189.722C384.947 183.57 380.93 178.914 375.854 175.754C370.811 172.594 365.163 171.014 358.91 171.014C352.657 171.014 346.993 172.594 341.917 175.754C336.874 178.914 332.857 183.57 329.865 189.722C326.907 195.874 325.427 203.421 325.427 212.364C325.427 221.306 326.907 228.853 329.865 235.005C332.857 241.157 336.874 245.813 341.917 248.973C346.993 252.133 352.657 253.713 358.91 253.713C365.163 253.713 370.811 252.133 375.854 248.973C380.93 245.813 384.947 241.157 387.905 235.005C390.897 228.853 392.393 221.306 392.393 212.364ZM496.12 193C495.01 189.605 493.548 186.562 491.733 183.873C489.951 181.15 487.816 178.83 485.329 176.914C482.875 174.998 480.084 173.536 476.958 172.527C473.831 171.518 470.403 171.014 466.671 171.014C460.553 171.014 454.989 172.594 449.98 175.754C444.971 178.914 440.987 183.57 438.029 189.722C435.071 195.874 433.591 203.421 433.591 212.364C433.591 221.306 435.087 228.853 438.079 235.005C441.071 241.157 445.122 245.813 450.232 248.973C455.342 252.133 461.09 253.713 467.478 253.713C473.394 253.713 478.605 252.452 483.11 249.931C487.648 247.376 491.178 243.779 493.699 239.14C496.254 234.467 497.532 228.971 497.532 222.651L501.364 223.457H470.302V212.364H509.634V223.457C509.634 231.963 507.819 239.358 504.188 245.645C500.591 251.931 495.616 256.806 489.262 260.268C482.942 263.697 475.68 265.412 467.478 265.412C458.334 265.412 450.299 263.26 443.374 258.957C436.483 254.654 431.104 248.536 427.238 240.602C423.405 232.669 421.489 223.256 421.489 212.364C421.489 204.195 422.582 196.849 424.767 190.327C426.986 183.772 430.112 178.192 434.146 173.586C438.18 168.98 442.954 165.451 448.467 162.996C453.98 160.542 460.048 159.315 466.671 159.315C472.117 159.315 477.193 160.139 481.9 161.786C486.64 163.4 490.859 165.703 494.557 168.695C498.288 171.653 501.398 175.2 503.885 179.335C506.373 183.436 508.088 187.991 509.029 193H496.12Z"/>
</mask>
<path d="M241.506 264V160.727H254.011V252.906H302.017V264H241.506ZM404.496 212.364C404.496 223.256 402.529 232.669 398.596 240.602C394.662 248.536 389.267 254.654 382.409 258.957C375.551 263.26 367.718 265.412 358.91 265.412C350.103 265.412 342.27 263.26 335.412 258.957C328.554 254.654 323.158 248.536 319.225 240.602C315.292 232.669 313.325 223.256 313.325 212.364C313.325 201.472 315.292 192.059 319.225 184.125C323.158 176.191 328.554 170.073 335.412 165.77C342.27 161.467 350.103 159.315 358.91 159.315C367.718 159.315 375.551 161.467 382.409 165.77C389.267 170.073 394.662 176.191 398.596 184.125C402.529 192.059 404.496 201.472 404.496 212.364ZM392.393 212.364C392.393 203.421 390.897 195.874 387.905 189.722C384.947 183.57 380.93 178.914 375.854 175.754C370.811 172.594 365.163 171.014 358.91 171.014C352.657 171.014 346.993 172.594 341.917 175.754C336.874 178.914 332.857 183.57 329.865 189.722C326.907 195.874 325.427 203.421 325.427 212.364C325.427 221.306 326.907 228.853 329.865 235.005C332.857 241.157 336.874 245.813 341.917 248.973C346.993 252.133 352.657 253.713 358.91 253.713C365.163 253.713 370.811 252.133 375.854 248.973C380.93 245.813 384.947 241.157 387.905 235.005C390.897 228.853 392.393 221.306 392.393 212.364ZM496.12 193C495.01 189.605 493.548 186.562 491.733 183.873C489.951 181.15 487.816 178.83 485.329 176.914C482.875 174.998 480.084 173.536 476.958 172.527C473.831 171.518 470.403 171.014 466.671 171.014C460.553 171.014 454.989 172.594 449.98 175.754C444.971 178.914 440.987 183.57 438.029 189.722C435.071 195.874 433.591 203.421 433.591 212.364C433.591 221.306 435.087 228.853 438.079 235.005C441.071 241.157 445.122 245.813 450.232 248.973C455.342 252.133 461.09 253.713 467.478 253.713C473.394 253.713 478.605 252.452 483.11 249.931C487.648 247.376 491.178 243.779 493.699 239.14C496.254 234.467 497.532 228.971 497.532 222.651L501.364 223.457H470.302V212.364H509.634V223.457C509.634 231.963 507.819 239.358 504.188 245.645C500.591 251.931 495.616 256.806 489.262 260.268C482.942 263.697 475.68 265.412 467.478 265.412C458.334 265.412 450.299 263.26 443.374 258.957C436.483 254.654 431.104 248.536 427.238 240.602C423.405 232.669 421.489 223.256 421.489 212.364C421.489 204.195 422.582 196.849 424.767 190.327C426.986 183.772 430.112 178.192 434.146 173.586C438.18 168.98 442.954 165.451 448.467 162.996C453.98 160.542 460.048 159.315 466.671 159.315C472.117 159.315 477.193 160.139 481.9 161.786C486.64 163.4 490.859 165.703 494.557 168.695C498.288 171.653 501.398 175.2 503.885 179.335C506.373 183.436 508.088 187.991 509.029 193H496.12Z" fill="black"/>
<path d="M241.506 264H236.506V269H241.506V264ZM241.506 160.727V155.727H236.506V160.727H241.506ZM254.011 160.727H259.011V155.727H254.011V160.727ZM254.011 252.906H249.011V257.906H254.011V252.906ZM302.017 252.906H307.017V247.906H302.017V252.906ZM302.017 264V269H307.017V264H302.017ZM246.506 264V160.727H236.506V264H246.506ZM241.506 165.727H254.011V155.727H241.506V165.727ZM249.011 160.727V252.906H259.011V160.727H249.011ZM254.011 257.906H302.017V247.906H254.011V257.906ZM297.017 252.906V264H307.017V252.906H297.017ZM302.017 259H241.506V269H302.017V259ZM398.596 240.602L394.116 238.381L398.596 240.602ZM382.409 258.957L385.066 263.193L382.409 258.957ZM335.412 258.957L332.754 263.193L335.412 258.957ZM319.225 240.602L323.705 238.381L319.225 240.602ZM319.225 184.125L314.745 181.904L319.225 184.125ZM382.409 165.77L385.066 161.535L382.409 165.77ZM398.596 184.125L394.116 186.346V186.346L398.596 184.125ZM387.905 189.722L383.399 191.889L383.404 191.899L383.409 191.909L387.905 189.722ZM375.854 175.754L373.198 179.991L373.205 179.995L373.211 179.999L375.854 175.754ZM341.917 175.754L339.274 171.51L339.268 171.513L339.262 171.517L341.917 175.754ZM329.865 189.722L325.368 187.536L325.364 187.545L325.359 187.555L329.865 189.722ZM329.865 235.005L325.359 237.172L325.364 237.182L325.368 237.192L329.865 235.005ZM341.917 248.973L339.262 253.21L339.268 253.214L339.274 253.218L341.917 248.973ZM375.854 248.973L373.211 244.728L373.205 244.732L373.198 244.736L375.854 248.973ZM387.905 235.005L383.409 232.818L383.404 232.828L383.399 232.838L387.905 235.005ZM399.496 212.364C399.496 222.659 397.637 231.279 394.116 238.381L403.075 242.823C407.421 234.059 409.496 223.852 409.496 212.364H399.496ZM394.116 238.381C390.553 245.569 385.755 250.955 379.751 254.722L385.066 263.193C392.778 258.354 398.772 251.503 403.075 242.823L394.116 238.381ZM379.751 254.722C373.76 258.482 366.864 260.412 358.91 260.412V270.412C368.572 270.412 377.342 268.039 385.066 263.193L379.751 254.722ZM358.91 260.412C350.957 260.412 344.061 258.482 338.069 254.722L332.754 263.193C340.478 268.039 349.248 270.412 358.91 270.412V260.412ZM338.069 254.722C332.065 250.955 327.268 245.569 323.705 238.381L314.745 242.823C319.049 251.503 325.042 258.354 332.754 263.193L338.069 254.722ZM323.705 238.381C320.183 231.279 318.325 222.659 318.325 212.364H308.325C308.325 223.852 310.4 234.059 314.745 242.823L323.705 238.381ZM318.325 212.364C318.325 202.068 320.183 193.449 323.705 186.346L314.745 181.904C310.4 190.669 308.325 200.875 308.325 212.364H318.325ZM323.705 186.346C327.268 179.159 332.065 173.772 338.069 170.005L332.754 161.535C325.042 166.374 319.049 173.224 314.745 181.904L323.705 186.346ZM338.069 170.005C344.061 166.246 350.957 164.315 358.91 164.315V154.315C349.248 154.315 340.478 156.688 332.754 161.535L338.069 170.005ZM358.91 164.315C366.864 164.315 373.76 166.246 379.751 170.005L385.066 161.535C377.342 156.688 368.572 154.315 358.91 154.315V164.315ZM379.751 170.005C385.755 173.772 390.553 179.159 394.116 186.346L403.075 181.904C398.772 173.224 392.778 166.374 385.066 161.535L379.751 170.005ZM394.116 186.346C397.637 193.449 399.496 202.068 399.496 212.364H409.496C409.496 200.875 407.421 190.669 403.075 181.904L394.116 186.346ZM397.393 212.364C397.393 202.887 395.811 194.545 392.402 187.536L383.409 191.909C385.984 197.204 387.393 203.955 387.393 212.364H397.393ZM392.411 187.555C389.101 180.672 384.488 175.239 378.496 171.51L373.211 179.999C377.372 182.589 380.793 186.468 383.399 191.889L392.411 187.555ZM378.509 171.517C372.629 167.833 366.052 166.014 358.91 166.014V176.014C364.274 176.014 368.993 177.356 373.198 179.991L378.509 171.517ZM358.91 166.014C351.768 166.014 345.181 167.833 339.274 171.51L344.559 179.999C348.805 177.356 353.547 176.014 358.91 176.014V166.014ZM339.262 171.517C333.312 175.246 328.707 180.67 325.368 187.536L334.361 191.909C337.006 186.471 340.436 182.583 344.572 179.991L339.262 171.517ZM325.359 187.555C321.991 194.559 320.427 202.894 320.427 212.364H330.427C330.427 203.949 331.822 197.189 334.371 191.889L325.359 187.555ZM320.427 212.364C320.427 221.833 321.991 230.168 325.359 237.172L334.371 232.838C331.822 227.538 330.427 220.779 330.427 212.364H320.427ZM325.368 237.192C328.707 244.057 333.312 249.482 339.262 253.21L344.572 244.736C340.436 242.144 337.006 238.257 334.361 232.818L325.368 237.192ZM339.274 253.218C345.181 256.895 351.768 258.713 358.91 258.713V248.713C353.547 248.713 348.805 247.372 344.559 244.728L339.274 253.218ZM358.91 258.713C366.052 258.713 372.629 256.894 378.509 253.21L373.198 244.736C368.993 247.372 364.274 248.713 358.91 248.713V258.713ZM378.496 253.218C384.488 249.488 389.101 244.055 392.411 237.172L383.399 232.838C380.793 238.259 377.372 242.138 373.211 244.728L378.496 253.218ZM392.402 237.192C395.811 230.182 397.393 221.84 397.393 212.364H387.393C387.393 220.772 385.984 227.524 383.409 232.818L392.402 237.192ZM496.12 193L491.367 194.553L492.493 198H496.12V193ZM491.733 183.873L487.549 186.611L487.568 186.641L487.589 186.67L491.733 183.873ZM485.329 176.914L482.251 180.855L482.264 180.865L482.278 180.875L485.329 176.914ZM476.958 172.527L478.493 167.768V167.768L476.958 172.527ZM438.029 189.722L442.535 191.889L438.029 189.722ZM438.079 235.005L433.583 237.192L438.079 235.005ZM450.232 248.973L447.602 253.226L450.232 248.973ZM483.11 249.931L485.552 254.294L485.563 254.288L483.11 249.931ZM493.699 239.14L489.312 236.741L489.306 236.752L493.699 239.14ZM497.532 222.651L498.562 217.758L492.532 216.488V222.651H497.532ZM501.364 223.457V228.457L502.394 218.565L501.364 223.457ZM470.302 223.457H465.302V228.457H470.302V223.457ZM470.302 212.364V207.364H465.302V212.364H470.302ZM509.634 212.364H514.634V207.364H509.634V212.364ZM504.188 245.645L499.858 243.144L499.853 243.153L499.848 243.162L504.188 245.645ZM489.262 260.268L491.646 264.663L491.655 264.659L489.262 260.268ZM443.374 258.957L440.726 263.199L440.735 263.204L443.374 258.957ZM427.238 240.602L422.736 242.777L422.739 242.785L422.743 242.793L427.238 240.602ZM424.767 190.327L420.031 188.724L420.028 188.732L420.026 188.739L424.767 190.327ZM434.146 173.586L437.907 176.88V176.88L434.146 173.586ZM448.467 162.996L446.434 158.429L448.467 162.996ZM481.9 161.786L480.248 166.506L480.268 166.513L480.288 166.519L481.9 161.786ZM494.557 168.695L491.412 172.582L491.431 172.597L491.45 172.613L494.557 168.695ZM503.885 179.335L499.601 181.912L499.606 181.92L499.61 181.928L503.885 179.335ZM509.029 193V198H515.056L513.943 192.077L509.029 193ZM500.873 191.447C499.633 187.655 497.977 184.186 495.877 181.076L487.589 186.67C489.12 188.938 490.387 191.555 491.367 194.553L500.873 191.447ZM495.917 181.135C493.84 177.961 491.327 175.223 488.38 172.953L482.278 180.875C484.306 182.438 486.062 184.339 487.549 186.611L495.917 181.135ZM488.406 172.973C485.465 170.677 482.146 168.947 478.493 167.768L475.423 177.286C478.022 178.124 480.285 179.319 482.251 180.855L488.406 172.973ZM478.493 167.768C474.808 166.58 470.854 166.014 466.671 166.014V176.014C469.951 176.014 472.855 176.457 475.423 177.286L478.493 167.768ZM466.671 166.014C459.641 166.014 453.147 167.844 447.312 171.525L452.648 179.983C456.831 177.344 461.464 176.014 466.671 176.014V166.014ZM447.312 171.525C441.394 175.259 436.825 180.689 433.523 187.555L442.535 191.889C445.15 186.452 448.548 182.569 452.648 179.983L447.312 171.525ZM433.523 187.555C430.155 194.559 428.591 202.894 428.591 212.364H438.591C438.591 203.949 439.986 197.189 442.535 191.889L433.523 187.555ZM428.591 212.364C428.591 221.84 430.174 230.182 433.583 237.192L442.576 232.818C440.001 227.524 438.591 220.772 438.591 212.364H428.591ZM433.583 237.192C436.93 244.074 441.58 249.501 447.602 253.226L452.862 244.72C448.665 242.125 445.213 238.24 442.576 232.818L433.583 237.192ZM447.602 253.226C453.553 256.905 460.223 258.713 467.478 258.713V248.713C461.958 248.713 457.131 247.361 452.862 244.72L447.602 253.226ZM467.478 258.713C474.123 258.713 480.198 257.291 485.552 254.294L480.668 245.568C477.012 247.614 472.666 248.713 467.478 248.713V258.713ZM485.563 254.288C490.932 251.265 495.129 246.98 498.093 241.527L489.306 236.752C487.227 240.578 484.365 243.487 480.657 245.574L485.563 254.288ZM498.086 241.539C501.112 236.004 502.532 229.652 502.532 222.651H492.532C492.532 228.289 491.396 232.93 489.312 236.741L498.086 241.539ZM496.502 227.543L500.334 228.35L502.394 218.565L498.562 217.758L496.502 227.543ZM501.364 218.457H470.302V228.457H501.364V218.457ZM475.302 223.457V212.364H465.302V223.457H475.302ZM470.302 217.364H509.634V207.364H470.302V217.364ZM504.634 212.364V223.457H514.634V212.364H504.634ZM504.634 223.457C504.634 231.237 502.98 237.74 499.858 243.144L508.518 248.146C512.658 240.977 514.634 232.689 514.634 223.457H504.634ZM499.848 243.162C496.711 248.645 492.409 252.859 486.869 255.878L491.655 264.659C498.822 260.753 504.471 255.217 508.528 248.128L499.848 243.162ZM486.877 255.874C481.387 258.853 474.966 260.412 467.478 260.412V270.412C476.395 270.412 484.497 268.542 491.646 264.663L486.877 255.874ZM467.478 260.412C459.15 260.412 452.053 258.463 446.013 254.71L440.735 263.204C448.546 268.058 457.518 270.412 467.478 270.412V260.412ZM446.022 254.716C439.995 250.953 435.224 245.578 431.732 238.412L422.743 242.793C426.983 251.494 432.97 258.356 440.726 263.199L446.022 254.716ZM431.74 238.427C428.303 231.313 426.489 222.677 426.489 212.364H416.489C416.489 223.835 418.507 234.024 422.736 242.777L431.74 238.427ZM426.489 212.364C426.489 204.636 427.523 197.84 429.508 191.916L420.026 188.739C417.64 195.859 416.489 203.753 416.489 212.364H426.489ZM429.503 191.93C431.538 185.917 434.359 180.931 437.907 176.88L430.385 170.291C425.865 175.452 422.433 181.627 420.031 188.724L429.503 191.93ZM437.907 176.88C441.472 172.811 445.658 169.72 450.5 167.564L446.434 158.429C440.249 161.181 434.889 165.149 430.385 170.291L437.907 176.88ZM450.5 167.564C455.314 165.422 460.68 164.315 466.671 164.315V154.315C459.417 154.315 452.647 155.663 446.434 158.429L450.5 167.564ZM466.671 164.315C471.606 164.315 476.119 165.06 480.248 166.506L483.551 157.067C478.267 155.218 472.628 154.315 466.671 154.315V164.315ZM480.288 166.519C484.501 167.954 488.195 169.979 491.412 172.582L497.702 164.808C493.523 161.426 488.778 158.846 483.511 157.053L480.288 166.519ZM491.45 172.613C494.706 175.193 497.418 178.284 499.601 181.912L508.17 176.757C505.377 172.115 501.871 168.112 497.663 164.777L491.45 172.613ZM499.61 181.928C501.768 185.484 503.278 189.468 504.115 193.923L513.943 192.077C512.898 186.514 510.979 181.388 508.161 176.741L499.61 181.928ZM509.029 188H496.12V198H509.029V188Z" fill="black" mask="url(#path-1-outside-1_23_3)"/>
<mask id="path-3-outside-2_23_3" maskUnits="userSpaceOnUse" x="236" y="29" width="275" height="114" fill="black">
<rect fill="white" x="236" y="29" width="275" height="114"/>
<path d="M241.506 138V34.7273H254.011V126.906H302.017V138H241.506ZM333.886 34.7273V138H321.381V34.7273H333.886ZM358.961 138V34.7273H420.884V45.821H371.466V80.7159H416.245V91.8097H371.466V138H358.961ZM442.303 138V34.7273H504.629V45.821H454.808V80.7159H501.402V91.8097H454.808V126.906H505.436V138H442.303Z"/>
</mask>
<path d="M241.506 138V34.7273H254.011V126.906H302.017V138H241.506ZM333.886 34.7273V138H321.381V34.7273H333.886ZM358.961 138V34.7273H420.884V45.821H371.466V80.7159H416.245V91.8097H371.466V138H358.961ZM442.303 138V34.7273H504.629V45.821H454.808V80.7159H501.402V91.8097H454.808V126.906H505.436V138H442.303Z" fill="black"/>
<path d="M241.506 138H236.506V143H241.506V138ZM241.506 34.7273V29.7273H236.506V34.7273H241.506ZM254.011 34.7273H259.011V29.7273H254.011V34.7273ZM254.011 126.906H249.011V131.906H254.011V126.906ZM302.017 126.906H307.017V121.906H302.017V126.906ZM302.017 138V143H307.017V138H302.017ZM246.506 138V34.7273H236.506V138H246.506ZM241.506 39.7273H254.011V29.7273H241.506V39.7273ZM249.011 34.7273V126.906H259.011V34.7273H249.011ZM254.011 131.906H302.017V121.906H254.011V131.906ZM297.017 126.906V138H307.017V126.906H297.017ZM302.017 133H241.506V143H302.017V133ZM333.886 34.7273H338.886V29.7273H333.886V34.7273ZM333.886 138V143H338.886V138H333.886ZM321.381 138H316.381V143H321.381V138ZM321.381 34.7273V29.7273H316.381V34.7273H321.381ZM328.886 34.7273V138H338.886V34.7273H328.886ZM333.886 133H321.381V143H333.886V133ZM326.381 138V34.7273H316.381V138H326.381ZM321.381 39.7273H333.886V29.7273H321.381V39.7273ZM358.961 138H353.961V143H358.961V138ZM358.961 34.7273V29.7273H353.961V34.7273H358.961ZM420.884 34.7273H425.884V29.7273H420.884V34.7273ZM420.884 45.821V50.821H425.884V45.821H420.884ZM371.466 45.821V40.821H366.466V45.821H371.466ZM371.466 80.7159H366.466V85.7159H371.466V80.7159ZM416.245 80.7159H421.245V75.7159H416.245V80.7159ZM416.245 91.8097V96.8097H421.245V91.8097H416.245ZM371.466 91.8097V86.8097H366.466V91.8097H371.466ZM371.466 138V143H376.466V138H371.466ZM363.961 138V34.7273H353.961V138H363.961ZM358.961 39.7273H420.884V29.7273H358.961V39.7273ZM415.884 34.7273V45.821H425.884V34.7273H415.884ZM420.884 40.821H371.466V50.821H420.884V40.821ZM366.466 45.821V80.7159H376.466V45.821H366.466ZM371.466 85.7159H416.245V75.7159H371.466V85.7159ZM411.245 80.7159V91.8097H421.245V80.7159H411.245ZM416.245 86.8097H371.466V96.8097H416.245V86.8097ZM366.466 91.8097V138H376.466V91.8097H366.466ZM371.466 133H358.961V143H371.466V133ZM442.303 138H437.303V143H442.303V138ZM442.303 34.7273V29.7273H437.303V34.7273H442.303ZM504.629 34.7273H509.629V29.7273H504.629V34.7273ZM504.629 45.821V50.821H509.629V45.821H504.629ZM454.808 45.821V40.821H449.808V45.821H454.808ZM454.808 80.7159H449.808V85.7159H454.808V80.7159ZM501.402 80.7159H506.402V75.7159H501.402V80.7159ZM501.402 91.8097V96.8097H506.402V91.8097H501.402ZM454.808 91.8097V86.8097H449.808V91.8097H454.808ZM454.808 126.906H449.808V131.906H454.808V126.906ZM505.436 126.906H510.436V121.906H505.436V126.906ZM505.436 138V143H510.436V138H505.436ZM447.303 138V34.7273H437.303V138H447.303ZM442.303 39.7273H504.629V29.7273H442.303V39.7273ZM499.629 34.7273V45.821H509.629V34.7273H499.629ZM504.629 40.821H454.808V50.821H504.629V40.821ZM449.808 45.821V80.7159H459.808V45.821H449.808ZM454.808 85.7159H501.402V75.7159H454.808V85.7159ZM496.402 80.7159V91.8097H506.402V80.7159H496.402ZM501.402 86.8097H454.808V96.8097H501.402V86.8097ZM449.808 91.8097V126.906H459.808V91.8097H449.808ZM454.808 131.906H505.436V121.906H454.808V131.906ZM500.436 126.906V138H510.436V126.906H500.436ZM505.436 133H442.303V143H505.436V133Z" fill="black" mask="url(#path-3-outside-2_23_3)"/>
<path d="M51.6336 219.104C22.4342 219.244 19.1233 225.117 21.1178 228.037L18.1261 229.963C4.24437 233.046 3.16734 236.152 4.36404 237.32C8.19347 238.861 8.75192 242.866 8.55246 244.676C4.72303 247.899 15.3338 253.258 21.1178 255.535C22.5538 258.758 36.8743 261.549 43.8551 262.541C59.1728 268.286 79.3571 268.788 87.5345 268.321C109.554 271.124 125.031 269.255 130.017 267.971L160.533 264.118C172.021 263.277 180.478 258.98 183.27 256.937C191.887 254.835 195.237 251.157 195.836 249.58C205.409 243.695 201.819 237.903 198.827 235.743C195.955 228.457 182.872 224.533 176.689 223.483C169.508 218.158 158.539 216.243 153.951 215.951C143.899 215.811 130.217 214.491 124.632 213.849C109.793 211.607 100.1 211.864 97.1081 212.273C87.734 212.857 68.8661 214.165 68.3874 214.725C67.9087 215.285 57.0188 217.878 51.6336 219.104Z" fill="#7A4817" stroke="#7A4817" stroke-width="4"/>
<path d="M4 51H189C195.075 51 200 55.9249 200 62V230C200 236.075 195.075 241 189 241H15C8.92486 241 4 236.075 4 230V51Z" fill="#7A4817"/>
<path d="M49.6336 37.1038C20.4342 37.2439 17.1233 43.1173 19.1178 46.0365L16.1261 47.9632C2.24437 51.0458 1.16734 54.1519 2.36404 55.3195C6.19347 56.8609 6.75192 60.866 6.55246 62.6759C2.72303 65.8987 13.3338 71.2583 19.1178 73.5353C20.5538 76.7581 34.8743 79.5488 41.8551 80.5414C57.1728 86.2863 77.3571 86.7884 85.5345 86.3213C107.554 89.1238 123.031 87.2555 128.017 85.971L158.533 82.1177C170.021 81.277 178.478 76.9799 181.27 74.9365C189.887 72.8347 193.237 69.1565 193.836 67.5801C203.409 61.6951 199.819 55.9034 196.827 53.7432C193.955 46.4569 180.872 42.5335 174.689 41.4826C167.508 36.158 156.539 34.243 151.951 33.9511C141.899 33.8109 128.217 32.4915 122.632 31.8492C107.793 29.6073 98.0999 29.8642 95.1081 30.2729C85.734 30.8567 66.8661 32.1645 66.3874 32.725C65.9087 33.2855 55.0188 35.8777 49.6336 37.1038Z" fill="#F5C67A" stroke="#7A4817" stroke-width="4"/>
<path d="M184.333 59.0426C184.333 61.7357 182.465 64.6165 178.315 67.4956C174.21 70.3436 168.173 72.9688 160.577 75.1979C145.406 79.6502 124.358 82.4251 101.046 82.4251C77.7345 82.4251 56.6867 79.6502 41.5152 75.1979C33.9197 72.9688 27.8821 70.3436 23.7774 67.4956C19.6279 64.6165 17.7593 61.7357 17.7593 59.0426C17.7593 56.3495 19.6279 53.4687 23.7774 50.5896C27.8821 47.7416 33.9197 45.1164 41.5152 42.8874C56.6867 38.435 77.7345 35.6602 101.046 35.6602C124.358 35.6602 145.406 38.435 160.577 42.8874C168.173 45.1164 174.21 47.7416 178.315 50.5896C182.465 53.4687 184.333 56.3495 184.333 59.0426Z" stroke="#EBA755" stroke-width="3"/>
<path d="M174.159 58.2961C174.159 60.6192 172.565 63.1401 168.934 65.6883C165.344 68.2071 160.053 70.5364 153.378 72.5173C140.05 76.4733 121.547 78.9415 101.046 78.9415C80.5453 78.9415 62.0427 76.4733 48.7141 72.5173C42.04 70.5364 36.7483 68.2071 33.1588 65.6883C29.5276 63.1401 27.9338 60.6192 27.9338 58.2961C27.9338 55.9731 29.5276 53.4521 33.1588 50.904C36.7483 48.3852 42.04 46.0559 48.7141 44.075C62.0427 40.119 80.5453 37.6508 101.046 37.6508C121.547 37.6508 140.05 40.119 153.378 44.075C160.053 46.0559 165.344 48.3852 168.934 50.904C172.565 53.4521 174.159 55.9731 174.159 58.2961Z" stroke="#EBA755" stroke-width="3"/>
<path d="M162.289 58.7939C162.289 60.6374 161.025 62.7002 157.995 64.831C155.006 66.9327 150.584 68.8865 144.984 70.5521C133.804 73.8775 118.269 75.9558 101.046 75.9558C83.8235 75.9558 68.2887 73.8775 57.1084 70.5521C51.5086 68.8865 47.0862 66.9327 44.0974 64.831C41.0675 62.7002 39.804 60.6374 39.804 58.7939C39.804 56.9504 41.0675 54.8876 44.0974 52.7569C47.0862 50.6551 51.5086 48.7013 57.1084 47.0358C68.2887 43.7103 83.8235 41.6321 101.046 41.6321C118.269 41.6321 133.804 43.7103 144.984 47.0358C150.584 48.7013 155.006 50.6551 157.995 52.7569C161.025 54.8876 162.289 56.9504 162.289 58.7939Z" stroke="#EBA755" stroke-width="3"/>
<path d="M152.114 59.2916C152.114 60.6563 151.18 62.2609 148.752 63.9739C146.364 65.6585 142.811 67.2366 138.285 68.5869C129.253 71.2816 116.687 72.9699 102.742 72.9699C88.7973 72.9699 76.2305 71.2816 67.1987 68.5869C62.6732 67.2366 59.1202 65.6585 56.7322 63.9739C54.3038 62.2609 53.3698 60.6563 53.3698 59.2916C53.3698 57.9269 54.3038 56.3222 56.7322 54.6092C59.1202 52.9247 62.6732 51.3465 67.1987 49.9963C76.2305 47.3016 88.7973 45.6133 102.742 45.6133C116.687 45.6133 129.253 47.3016 138.285 49.9963C142.811 51.3465 146.364 52.9247 148.752 54.6092C151.18 56.3222 152.114 57.9269 152.114 59.2916Z" stroke="#EBA755" stroke-width="3"/>
<path d="M140.244 59.5403C140.244 60.4614 139.615 61.6407 137.745 62.9654C135.915 64.2622 133.169 65.4915 129.642 66.5488C122.605 68.6577 112.795 69.9838 101.894 69.9838C90.9938 69.9838 81.1832 68.6577 74.1468 66.5488C70.619 65.4915 67.8734 64.2622 66.0432 62.9654C64.1739 61.6407 63.5444 60.4614 63.5444 59.5403C63.5444 58.6191 64.1739 57.4398 66.0432 56.1152C67.8734 54.8183 70.619 53.5891 74.1468 52.5317C81.1832 50.4228 90.9938 49.0967 101.894 49.0967C112.795 49.0967 122.605 50.4228 129.642 52.5317C133.169 53.5891 135.915 54.8183 137.745 56.1152C139.615 57.4398 140.244 58.6191 140.244 59.5403Z" stroke="#EBA755" stroke-width="3"/>
<path d="M130.334 60.0462C130.334 66.3009 126.422 66.98 104.984 66.98C103.733 66.8705 102.501 66.7624 101.292 66.6531C84.0164 65.0914 84.4924 51.7038 101.815 50.8013C123.253 50.8013 130.334 53.7916 130.334 60.0462Z" fill="#EBA755"/>
<rect x="21" y="260" width="104" height="1" transform="rotate(-90 21 260)" fill="#F5C67A"/>
<rect x="174" y="264" width="104" height="1" transform="rotate(-90 174 264)" fill="#F5C67A"/>
<rect width="127" height="1" transform="matrix(0 -1 -1 0 31 203)" fill="#F5C67A"/>
<rect x="190" y="146" width="85" height="1" transform="rotate(-90 190 146)" fill="#F5C67A"/>
<rect width="127" height="1" transform="matrix(0 -1 -1 0 104 251)" fill="#F5C67A"/>
<rect width="84" height="1" transform="matrix(0 -1 -1 0 52 164)" fill="#F5C67A"/>
<rect width="84" height="1" transform="matrix(0 -1 -1 0 133 167)" fill="#F5C67A"/>
<rect width="84" height="1" transform="matrix(0 -1 -1 0 94 168)" fill="#F5C67A"/>
<rect width="84" height="1" transform="matrix(0 -1 -1 0 139 269)" fill="#F5C67A"/>
<rect x="154" y="230" width="62" height="1" transform="rotate(-90 154 230)" fill="#F5C67A"/>
<rect x="191" y="255" width="62" height="1" transform="rotate(-90 191 255)" fill="#F5C67A"/>
<rect width="84" height="1" transform="matrix(0 -1 -1 0 165 160)" fill="#F5C67A"/>
<rect width="84" height="1" transform="matrix(0 -1 -1 0 89 270)" fill="#F5C67A"/>
<rect width="46" height="1" transform="matrix(0 -1 -1 0 40 265)" fill="#F5C67A"/>
<rect width="138" height="1" transform="matrix(0 -1 -1 0 70 269)" fill="#F5C67A"/>
<rect width="138" height="1" transform="matrix(0 -1 -1 0 121 270)" fill="#F5C67A"/>
<rect x="13" y="172" width="105" height="1" transform="rotate(-90 13 172)" fill="#F5C67A"/>
</svg>
