<svg width="100" height="100" viewBox="0 0 100 100" fill="none" xmlns="http://www.w3.org/2000/svg">
<circle cx="50" cy="50" r="50" fill="#F4C276"/>
<path d="M69.5 51.5C69.5044 52.2135 69.2877 52.9109 68.8795 53.4961C68.4713 54.0814 67.8918 54.5258 67.2206 54.7681L55.9222 58.9244L51.766 70.2141C51.5198 70.8827 51.0745 71.4598 50.4901 71.8674C49.9057 72.275 49.2103 72.4936 48.4978 72.4936C47.7853 72.4936 47.0899 72.275 46.5055 71.8674C45.9211 71.4598 45.4758 70.8827 45.2297 70.2141L41.0625 58.9375L29.7706 54.7812C29.102 54.5351 28.5249 54.0898 28.1173 53.5054C27.7097 52.921 27.4911 52.2256 27.4911 51.5131C27.4911 50.8006 27.7097 50.1052 28.1173 49.5208C28.5249 48.9364 29.102 48.4911 29.7706 48.245L41.0691 44.0888L45.2253 32.7991C45.4715 32.1304 45.9168 31.5533 46.5012 31.1457C47.0856 30.7381 47.7809 30.5195 48.4935 30.5195C49.206 30.5195 49.9013 30.7381 50.4857 31.1457C51.0701 31.5533 51.5154 32.1304 51.7616 32.7991L55.9178 44.0975L67.2075 48.2537C67.8776 48.4927 68.4574 48.9328 68.8678 49.5139C69.2782 50.095 69.499 50.7886 69.5 51.5ZM57.25 30.5H60.75V34C60.75 34.4641 60.9344 34.9092 61.2626 35.2374C61.5908 35.5656 62.0359 35.75 62.5 35.75C62.9641 35.75 63.4093 35.5656 63.7374 35.2374C64.0656 34.9092 64.25 34.4641 64.25 34V30.5H67.75C68.2141 30.5 68.6593 30.3156 68.9874 29.9874C69.3156 29.6592 69.5 29.2141 69.5 28.75C69.5 28.2859 69.3156 27.8408 68.9874 27.5126C68.6593 27.1844 68.2141 27 67.75 27H64.25V23.5C64.25 23.0359 64.0656 22.5908 63.7374 22.2626C63.4093 21.9344 62.9641 21.75 62.5 21.75C62.0359 21.75 61.5908 21.9344 61.2626 22.2626C60.9344 22.5908 60.75 23.0359 60.75 23.5V27H57.25C56.7859 27 56.3408 27.1844 56.0126 27.5126C55.6844 27.8408 55.5 28.2859 55.5 28.75C55.5 29.2141 55.6844 29.6592 56.0126 29.9874C56.3408 30.3156 56.7859 30.5 57.25 30.5ZM76.5 37.5H74.75V35.75C74.75 35.2859 74.5656 34.8408 74.2374 34.5126C73.9093 34.1844 73.4641 34 73 34C72.5359 34 72.0908 34.1844 71.7626 34.5126C71.4344 34.8408 71.25 35.2859 71.25 35.75V37.5H69.5C69.0359 37.5 68.5908 37.6844 68.2626 38.0126C67.9344 38.3408 67.75 38.7859 67.75 39.25C67.75 39.7141 67.9344 40.1592 68.2626 40.4874C68.5908 40.8156 69.0359 41 69.5 41H71.25V42.75C71.25 43.2141 71.4344 43.6592 71.7626 43.9874C72.0908 44.3156 72.5359 44.5 73 44.5C73.4641 44.5 73.9093 44.3156 74.2374 43.9874C74.5656 43.6592 74.75 43.2141 74.75 42.75V41H76.5C76.9641 41 77.4093 40.8156 77.7374 40.4874C78.0656 40.1592 78.25 39.7141 78.25 39.25C78.25 38.7859 78.0656 38.3408 77.7374 38.0126C77.4093 37.6844 76.9641 37.5 76.5 37.5Z" fill="black"/>
</svg>
