<svg width="58" height="44" viewBox="0 0 58 44" fill="none" xmlns="http://www.w3.org/2000/svg">
<path d="M46.4804 37.5137L46.1647 37.198L35.6327 26.666C34.8108 27.2707 33.8866 27.7561 32.8628 28.1236C31.6963 28.5424 30.4583 28.7504 29.152 28.7504C25.9195 28.7504 23.1675 27.6255 20.9235 25.3803C18.6796 23.1352 17.5548 20.3834 17.5536 17.1521L17.5536 17.152C17.5536 13.9195 18.6784 11.1675 20.9236 8.92346C23.1687 6.6796 25.9205 5.55476 29.1518 5.55357L29.152 5.55357C32.3845 5.55357 35.137 6.67843 37.3821 8.92354C39.6272 11.1686 40.7515 13.9206 40.7504 17.152L46.4804 37.5137ZM46.4804 37.5137L46.7961 37.198M46.4804 37.5137L46.7961 37.198M46.7961 37.198L49.198 34.7961L49.5137 34.4804M46.7961 37.198L49.5137 34.4804M49.5137 34.4804L49.198 34.1647M49.5137 34.4804L49.198 34.1647M49.198 34.1647L38.666 23.6327C39.2707 22.8108 39.7561 21.8866 40.1236 20.8628C40.5423 19.6964 40.7503 18.4584 40.7504 17.1521L49.198 34.1647ZM29.152 24.4261H29.1517C27.1255 24.4272 25.4169 23.723 23.9997 22.3059C22.5826 20.8888 21.8779 19.1796 21.8778 17.1522C21.8789 15.1257 22.5837 13.4169 23.9999 11.9996C25.4158 10.5826 27.1243 9.87786 29.1517 9.8778C31.1806 9.87888 32.8899 10.5838 34.3059 11.9997C35.7218 13.4157 36.4261 15.1244 36.4261 17.152V17.1522C36.4272 19.1808 35.723 20.8899 34.306 22.3058C32.8889 23.7218 31.1796 24.4261 29.152 24.4261Z" fill="black" stroke="black" stroke-width="0.892857"/>
</svg>
