<svg width="53" height="55" viewBox="0 0 53 55" fill="none" xmlns="http://www.w3.org/2000/svg">
<path d="M46.8125 27.5001C46.8125 26.8772 46.7854 26.2813 46.7313 25.6584L51.7688 21.8397C52.8521 21.0272 53.15 19.5105 52.4729 18.3188L47.4083 9.57092C47.0836 8.99725 46.5583 8.5638 45.9335 8.35384C45.3086 8.14389 44.6282 8.17222 44.0229 8.43342L38.2 10.898C37.1979 10.1938 36.1417 9.57092 35.0313 9.05633L34.2458 2.80008C34.0833 1.44592 32.9188 0.416748 31.5646 0.416748H21.4625C20.0813 0.416748 18.9167 1.44592 18.7542 2.80008L17.9688 9.05633C16.8583 9.57092 15.8021 10.1938 14.8 10.898L8.97709 8.43342C7.73126 7.89175 6.26876 8.37925 5.59168 9.57092L0.527092 18.3459C-0.149991 19.5376 0.147925 21.0272 1.23126 21.8667L6.26876 25.6855C6.15649 26.9017 6.15649 28.1256 6.26876 29.3418L1.23126 33.1605C0.147925 33.973 -0.149991 35.4897 0.527092 36.6813L5.59168 45.4293C6.26876 46.6209 7.73126 47.1084 8.97709 46.5668L14.8 44.1022C15.8021 44.8063 16.8583 45.4292 17.9688 45.9438L18.7542 52.2001C18.9167 53.5543 20.0813 54.5834 21.4354 54.5834H31.5375C32.8917 54.5834 34.0563 53.5543 34.2188 52.2001L35.0042 45.9438C36.1146 45.4292 37.1708 44.8063 38.1729 44.1022L43.9958 46.5668C45.2417 47.1084 46.7042 46.6209 47.3813 45.4293L52.4458 36.6813C53.1229 35.4897 52.825 34.0001 51.7417 33.1605L46.7042 29.3418C46.7854 28.7188 46.8125 28.123 46.8125 27.5001ZM26.6083 36.9793C21.3813 36.9793 17.1292 32.7272 17.1292 27.5001C17.1292 22.273 21.3813 18.0209 26.6083 18.0209C31.8354 18.0209 36.0875 22.273 36.0875 27.5001C36.0875 32.7272 31.8354 36.9793 26.6083 36.9793Z" fill="black"/>
</svg>
