<svg width="46" height="46" viewBox="0 0 46 46" fill="none" xmlns="http://www.w3.org/2000/svg">
<path d="M23 0.333252C26.0058 0.333252 28.8884 1.5273 31.0139 3.65271C33.1393 5.77812 34.3333 8.6608 34.3333 11.6666C34.3333 14.6724 33.1393 17.555 31.0139 19.6805C28.8884 21.8059 26.0058 22.9999 23 22.9999C19.9942 22.9999 17.1115 21.8059 14.9861 19.6805C12.8607 17.555 11.6666 14.6724 11.6666 11.6666C11.6666 8.6608 12.8607 5.77812 14.9861 3.65271C17.1115 1.5273 19.9942 0.333252 23 0.333252ZM23 28.6666C35.5233 28.6666 45.6666 33.7383 45.6666 39.9999V45.6666H0.333313V39.9999C0.333313 33.7383 10.4766 28.6666 23 28.6666Z" fill="black"/>
</svg>
