<svg width="58" height="54" viewBox="0 0 58 54" fill="none" xmlns="http://www.w3.org/2000/svg">
<g clip-path="url(#clip0_45_6)">
<g clip-path="url(#clip1_45_6)">
<path d="M47.7681 16.8817H44.4611V19.362C44.4611 19.6008 44.414 19.8373 44.3226 20.058C44.2312 20.2787 44.0972 20.4792 43.9283 20.6481C43.7594 20.817 43.5589 20.951 43.3382 21.0424C43.1176 21.1338 42.8811 21.1808 42.6422 21.1808C42.4033 21.1808 42.1668 21.1338 41.9462 21.0424C41.7255 20.951 41.525 20.817 41.3561 20.6481C41.1872 20.4792 41.0532 20.2787 40.9618 20.058C40.8704 19.8373 40.8233 19.6008 40.8233 19.362V16.8817H31.1917V19.362C31.1917 19.8443 31 20.307 30.6589 20.6481C30.3178 20.9892 29.8552 21.1808 29.3728 21.1808C28.8904 21.1808 28.4278 20.9892 28.0867 20.6481C27.7456 20.307 27.5539 19.8443 27.5539 19.362V16.8817H24.2469C24.0502 16.8794 23.855 16.9167 23.6729 16.9912C23.4908 17.0657 23.3254 17.176 23.1867 17.3155C23.048 17.455 22.9386 17.6209 22.8651 17.8035C22.7916 17.986 22.7554 18.1814 22.7588 18.3781V36.8809C22.7555 37.0741 22.7903 37.2662 22.8612 37.446C22.9322 37.6258 23.0378 37.7898 23.1722 37.9288C23.3065 38.0678 23.467 38.1789 23.6443 38.2558C23.8216 38.3328 24.0123 38.3741 24.2056 38.3773H47.7681C47.9613 38.3741 48.1521 38.3328 48.3294 38.2558C48.5067 38.1789 48.6671 38.0678 48.8015 37.9288C48.9358 37.7898 49.0415 37.6258 49.1124 37.446C49.1834 37.2662 49.2182 37.0741 49.2149 36.8809V18.3781C49.2182 18.1848 49.1834 17.9928 49.1124 17.813C49.0415 17.6332 48.9358 17.4692 48.8015 17.3302C48.6671 17.1912 48.5067 17.0801 48.3294 17.0031C48.1521 16.9262 47.9613 16.8849 47.7681 16.8817ZM29.3728 33.4168H27.7193V31.7633H29.3728V33.4168ZM29.3728 29.283H27.7193V27.6295H29.3728V29.283ZM29.3728 25.1492H27.7193V23.4957H29.3728V25.1492ZM34.3333 33.4168H32.6798V31.7633H34.3333V33.4168ZM34.3333 29.283H32.6798V27.6295H34.3333V29.283ZM34.3333 25.1492H32.6798V23.4957H34.3333V25.1492ZM39.2938 33.4168H37.6403V31.7633H39.2938V33.4168ZM39.2938 29.283H37.6403V27.6295H39.2938V29.283ZM39.2938 25.1492H37.6403V23.4957H39.2938V25.1492ZM44.2544 33.4168H42.6009V31.7633H44.2544V33.4168ZM44.2544 29.283H42.6009V27.6295H44.2544V29.283ZM44.2544 25.1492H42.6009V23.4957H44.2544V25.1492Z" fill="#9A9A9A"/>
<path d="M29.3727 20.1887C29.5919 20.1887 29.8022 20.1016 29.9573 19.9466C30.1123 19.7915 30.1994 19.5813 30.1994 19.362V14.4015C30.1994 14.1822 30.1123 13.9719 29.9573 13.8169C29.8022 13.6618 29.5919 13.5747 29.3727 13.5747C29.1534 13.5747 28.9431 13.6618 28.788 13.8169C28.633 13.9719 28.5459 14.1822 28.5459 14.4015V19.362C28.5459 19.5813 28.633 19.7915 28.788 19.9466C28.9431 20.1016 29.1534 20.1887 29.3727 20.1887Z" fill="#9A9A9A"/>
<path d="M42.6009 20.1887C42.8202 20.1887 43.0305 20.1016 43.1855 19.9466C43.3406 19.7915 43.4277 19.5813 43.4277 19.362V14.4015C43.4277 14.1822 43.3406 13.9719 43.1855 13.8169C43.0305 13.6618 42.8202 13.5747 42.6009 13.5747C42.3817 13.5747 42.1714 13.6618 42.0163 13.8169C41.8613 13.9719 41.7742 14.1822 41.7742 14.4015V19.362C41.7742 19.5813 41.8613 19.7915 42.0163 19.9466C42.1714 20.1016 42.3817 20.1887 42.6009 20.1887Z" fill="#9A9A9A"/>
</g>
</g>
<defs>
<clipPath id="clip0_45_6">
<rect width="39" height="39" fill="white" transform="translate(17 15)"/>
</clipPath>
<clipPath id="clip1_45_6">
<rect width="29.7632" height="29.7632" fill="white" transform="translate(21.1052 11.9211)"/>
</clipPath>
</defs>
</svg>
