<svg width="58" height="41" viewBox="0 0 58 41" fill="none" xmlns="http://www.w3.org/2000/svg">
<rect width="58" height="41" fill="white"/>
<path fill-rule="evenodd" clip-rule="evenodd" d="M43.0521 19.5522C43.0521 21.0551 42.4551 22.4964 41.3924 23.5591C40.3296 24.6218 38.8883 25.2188 37.3854 25.2188C35.8825 25.2188 34.4412 24.6218 33.3785 23.5591C32.3158 22.4964 31.7188 21.0551 31.7188 19.5522C31.7188 18.0493 32.3158 16.6079 33.3785 15.5452C34.4412 14.4825 35.8825 13.8855 37.3854 13.8855C38.8883 13.8855 40.3296 14.4825 41.3924 15.5452C42.4551 16.6079 43.0521 18.0493 43.0521 19.5522ZM40.2187 19.5522C40.2187 20.3036 39.9202 21.0243 39.3889 21.5556C38.8575 22.087 38.1369 22.3855 37.3854 22.3855C36.634 22.3855 35.9133 22.087 35.3819 21.5556C34.8506 21.0243 34.5521 20.3036 34.5521 19.5522C34.5521 18.8007 34.8506 18.08 35.3819 17.5487C35.9133 17.0173 36.634 16.7188 37.3854 16.7188C38.1369 16.7188 38.8575 17.0173 39.3889 17.5487C39.9202 18.08 40.2187 18.8007 40.2187 19.5522Z" fill="#9A9A9A"/>
<path fill-rule="evenodd" clip-rule="evenodd" d="M28.2082 28.4005C26.3819 26.6616 25.1122 24.4202 24.5597 21.9598C24.0073 19.4993 24.1968 16.9303 25.1045 14.5776C26.0121 12.2248 27.597 10.1941 29.6587 8.74211C31.7205 7.29013 34.1665 6.48215 36.6875 6.42034C39.2084 6.35852 41.6911 7.04565 43.8215 8.39483C45.952 9.744 47.6345 11.6946 48.6563 14C49.6782 16.3055 49.9934 18.8621 49.5622 21.3467C49.131 23.8313 47.9727 26.1322 46.2338 27.9585L37.442 37.1923L28.2082 28.4005ZM44.1825 26.0049L37.3443 33.1874L30.1618 26.3491C28.7414 24.9967 27.7539 23.2534 27.3242 21.3398C26.8946 19.4261 27.042 17.428 27.7479 15.5982C28.4538 13.7683 29.6865 12.1889 31.29 11.0596C32.8935 9.93026 34.7959 9.3018 36.7566 9.25365C38.7173 9.20551 40.6483 9.73986 42.3053 10.7891C43.9623 11.8384 45.271 13.3554 46.0658 15.1484C46.8607 16.9414 47.106 18.9299 46.7708 20.8623C46.4355 22.7947 45.5348 24.5844 44.1825 26.0049Z" fill="#9A9A9A"/>
</svg>
