<svg width="99" height="99" viewBox="0 0 99 99" fill="none" xmlns="http://www.w3.org/2000/svg">
<rect width="99" height="99" rx="7.60064" fill="#D9D9D9"/>
<g clip-path="url(#clip0_148_5)">
<path d="M23.75 31.0625H28.125V34.75H23.75V31.0625ZM23.75 38.4375H28.125V42.125H23.75V38.4375ZM54.375 31.0625H58.75V34.75H54.375V31.0625ZM79.3604 56.875H68.7646L74.0625 52.4385L79.3604 56.875ZM63.125 47.6562C63.125 47.1569 63.3415 46.7248 63.7744 46.3599C64.2074 45.995 64.7201 45.8125 65.3125 45.8125C65.9049 45.8125 66.4176 45.995 66.8506 46.3599C67.2835 46.7248 67.5 47.1569 67.5 47.6562C67.5 48.1556 67.2835 48.5877 66.8506 48.9526C66.4176 49.3175 65.9049 49.5 65.3125 49.5C64.7201 49.5 64.2074 49.3175 63.7744 48.9526C63.3415 48.5877 63.125 48.1556 63.125 47.6562ZM85 38.4375V64.25H80.625V42.125H36.875V57.9409L47.8125 48.751L63.125 61.6284L67.5 57.9409V63.1841L66.2354 64.25H60.0146L47.8125 53.9365L36.875 63.1841V67.9375H58.75V71.625H32.5V53.1875H15V20H67.5V38.4375H85ZM63.125 38.4375V23.6875H58.75V27.375H54.375V23.6875H28.125V27.375H23.75V23.6875H19.375V49.5H23.75V45.8125H28.125V49.5H32.5V38.4375H63.125ZM76.25 67.9375H85V71.625H76.25V79H71.875V71.625H63.125V67.9375H71.875V60.5625H76.25V67.9375Z" fill="black"/>
</g>
<defs>
<clipPath id="clip0_148_5">
<rect width="70" height="59" fill="white" transform="translate(15 20)"/>
</clipPath>
</defs>
</svg>
